<?xml version="1.0" encoding="UTF-8"?>
<svg width="333px" height="275px" viewBox="0 0 333 275" version="1.1" xmlns="http://www.w3.org/2000/svg" xmlns:xlink="http://www.w3.org/1999/xlink">
    <title>Asset 1</title>
    <g id="Homepage" stroke="none" stroke-width="1" fill="none" fill-rule="evenodd">
        <g id="Desktop" transform="translate(-512.000000, -140.000000)" fill-rule="nonzero">
            <g id="Asset-1" transform="translate(512.000000, 140.000000)">
                <g id="Background_Complete" transform="translate(95.000000, 114.000000)">
                    <rect id="Rectangle" fill="#F0F0F0" transform="translate(203.876240, 60.501936) rotate(180.000000) translate(-203.876240, -60.501936) " x="184.240909" y="6.62940804" width="39.2706612" height="107.745055"></rect>
                    <rect id="Rectangle" fill="#F0F0F0" transform="translate(114.366660, 118.191525) rotate(180.000000) translate(-114.366660, -118.191525) " x="12.7661908" y="114.383051" width="203.200939" height="7.61694939"></rect>
                    <rect id="Rectangle" fill="#F5F5F5" x="5.23035312" y="6.63799535" width="179.010556" height="107.745055"></rect>
                    <rect id="Rectangle" fill="#F0F0F0" x="5.23035312" y="13.9286267" width="179.69876" height="39.4415429"></rect>
                    <rect id="Rectangle" fill="#F0F0F0" x="5.23035312" y="60.5577532" width="179.69876" height="39.4415429"></rect>
                    <rect id="Rectangle" fill="#E6E6E6" transform="translate(187.630316, 33.640811) rotate(180.000000) translate(-187.630316, -33.640811) " x="184.232307" y="13.9200394" width="6.79601803" height="39.4415429"></rect>
                    <rect id="Rectangle" fill="#E6E6E6" transform="translate(187.630316, 80.278525) rotate(180.000000) translate(-187.630316, -80.278525) " x="184.232307" y="60.5577532" width="6.79601803" height="39.4415429"></rect>
                    <rect id="Rectangle" fill="#F0F0F0" transform="translate(92.120455, 3.314704) rotate(180.000000) translate(-92.120455, -3.314704) " x="-2.84217094e-14" y="0" width="184.240909" height="6.62940804"></rect>
                    <rect id="Rectangle" fill="#E6E6E6" x="184.240909" y="0.00858731611" width="44.7590909" height="6.62940804"></rect>
                </g>
                <g id="Shadow" transform="translate(0.000000, 256.000000)" fill="#F5F5F5">
                    <ellipse id="_Path_" cx="166.5" cy="9.5" rx="166.5" ry="9.5"></ellipse>
                </g>
                <g id="Desk" transform="translate(20.000000, 0.000000)">
                    <rect id="Rectangle" fill="#407BFF" x="-7.10542736e-15" y="123.241026" width="292" height="10.4748857"></rect>
                    <rect id="Rectangle" fill="#FFFFFF" opacity="0.3" x="-7.10542736e-15" y="123.241026" width="78.150287" height="10.4748857"></rect>
                    <polygon id="Path" fill="#407BFF" points="79.3964974 133.715912 72.5982046 133.715912 76.1563503 265 79.3964974 265 82.6366446 265 86.1947903 133.715912"></polygon>
                    <polygon id="Path" fill="#FFFFFF" opacity="0.3" points="76.1563503 265 79.3964974 265 79.3964974 136.534421 72.7099338 137.763222"></polygon>
                    <polygon id="Path" fill="#407BFF" points="14.9631199 133.715912 8.15623252 133.715912 11.7229728 265 14.9631199 265 18.2032671 265 21.7614128 133.715912"></polygon>
                    <polygon id="Path" fill="#FFFFFF" opacity="0.3" points="11.7229728 265 14.9631199 265 14.9631199 136.534421 8.26796174 137.763222"></polygon>
                    <polygon id="Path" fill="#407BFF" points="277.03688 133.715912 270.238587 133.715912 273.796733 265 277.03688 265 280.277027 265 283.843767 133.715912"></polygon>
                    <polygon id="Path" fill="#FFFFFF" opacity="0.3" points="273.796733 265 277.03688 265 277.03688 136.534421 270.350316 137.763222"></polygon>
                    <polygon id="Path" fill="#407BFF" points="212.603503 133.715912 205.80521 133.715912 209.363355 265 212.603503 265 215.84365 265 219.401795 133.715912"></polygon>
                    <polygon id="Path" fill="#FFFFFF" opacity="0.3" points="209.363355 265 212.603503 265 212.603503 136.534421 205.908344 137.763222"></polygon>
                    <path d="M138.604386,67.1630079 L69.1260044,67.1630079 C67.9846554,67.1206226 66.8917385,67.6259823 66.1849023,68.5229599 C65.478066,69.4199376 65.2423844,70.6005738 65.5506696,71.70012 L74.7984106,115.825254 C75.4099053,118.389502 77.6476986,120.23763 80.2817366,120.353773 L149.760118,120.353773 C150.900967,120.398142 151.994407,119.895088 152.702853,118.999922 C153.411299,118.104756 153.649549,116.925136 153.344047,115.825254 L144.087712,71.70012 C143.476916,69.1340876 141.239825,67.2830338 138.604386,67.1630079 L138.604386,67.1630079 Z" id="Path" fill="#263238"></path>
                    <path d="M80.9263282,117.836019 C79.1533195,117.714641 77.6573216,116.471662 77.2134805,114.751127 L67.9657395,70.6259931 C67.8079918,70.0344566 67.9247673,69.4033507 68.283738,68.90739 C68.6585339,68.4836267 69.2054673,68.2528811 69.770596,68.2800999 L139.248977,68.2800999 C141.02441,68.4026171 142.521134,69.649664 142.961825,71.3735854 L152.209566,115.490126 C152.369853,116.081561 152.252874,116.713772 151.891567,117.208729 C151.519061,117.635667 150.970515,117.867093 150.404709,117.836019 L80.9263282,117.836019 Z" id="Path" fill="#FFFFFF"></path>
                    <path d="M133.344518,114.287104 L124.578072,72.4734914 C124.492606,71.978515 124.628002,71.4709294 124.948646,71.0842419 C125.269291,70.6975543 125.743087,70.470473 126.245416,70.4627258 L137.521472,70.4627258 C138.324133,70.4680376 139.016257,71.0280585 139.188815,71.8118292 L147.955261,113.616849 C148.055015,114.118338 147.92625,114.638196 147.603951,115.035184 C147.281652,115.432172 146.79929,115.665062 146.287918,115.670579 L135.011862,115.670579 C134.198746,115.661787 133.503037,115.084523 133.344518,114.287104 L133.344518,114.287104 Z" id="Path" fill="#407BFF" opacity="0.4"></path>
                    <polygon id="Path" fill="#407BFF" points="73.7498749 74.0803852 73.3717145 72.267259 87.2948933 72.267259 87.6730537 74.0803852"></polygon>
                    <polygon id="Path" fill="#EBEBEB" points="80.1786019 78.5745322 79.8004415 76.761406 104.200383 76.761406 104.587138 78.5745322"></polygon>
                    <polygon id="Path" fill="#EBEBEB" points="81.4591906 83.0686793 81.0810302 81.255553 108.437498 81.255553 108.815659 83.0686793"></polygon>
                    <polygon id="Path" fill="#EBEBEB" points="82.7483738 87.5714193 82.3702134 85.7582931 104.389463 85.7582931 104.776218 87.5714193"></polygon>
                    <polygon id="Path" fill="#407BFF" points="77.9783959 94.8668893 77.6002355 93.0537631 86.4096542 93.0537631 86.7878146 94.8668893"></polygon>
                    <polygon id="Path" fill="#EBEBEB" points="84.4071229 99.3696294 84.0289625 97.5565031 94.7549669 97.5565031 95.1417219 99.3696294"></polygon>
                    <polygon id="Path" fill="#EBEBEB" points="97.7114937 99.3696294 97.3247388 97.5565031 108.059338 97.5565031 108.437498 99.3696294"></polygon>
                    <polygon id="Path" fill="#EBEBEB" points="85.6963061 103.863776 85.3095511 102.05065 121.587167 102.05065 121.965327 103.863776"></polygon>
                    <polygon id="Path" fill="#EBEBEB" points="86.9768948 108.366516 86.5987344 106.55339 114.256012 106.55339 114.634172 108.366516"></polygon>
                    <path d="M171.040235,120.095982 L79.6285504,120.095982 C77.127535,120.095982 75.5203532,121.505237 76.044621,123.241026 L176.523561,123.241026 C175.999294,121.505237 173.532656,120.095982 171.040235,120.095982 Z" id="Path" fill="#263238"></path>
                    <path d="M49.5905813,56.009274 L40.8241354,14.2042544 C40.7243821,13.7027647 40.8531467,13.182907 41.1754458,12.7859189 C41.4977449,12.3889309 41.9801061,12.1560416 42.491479,12.1505237 L113.482502,12.1505237 C114.285163,12.1558356 114.977287,12.7158564 115.149845,13.4996271 L123.916291,55.3132397 C124.013147,55.8134403 123.883033,56.3308247 123.561072,56.7257376 C123.23911,57.1206505 122.758492,57.3523804 122.248948,57.3583774 L51.2235467,57.3583774 C50.4338219,57.337294 49.7601512,56.780729 49.5905813,56.009274 Z" id="Path" fill="#407BFF" opacity="0.1"></path>
                    <polygon id="Path" fill="#407BFF" points="74.8241943 13.5254061 59.9212362 13.5254061 59.5860486 11.9271053 74.4890066 11.9271053"></polygon>
                    <polygon id="Path" fill="#407BFF" opacity="0.4" points="72.4005298 16.0861247 66.4187196 16.0861247 66.083532 14.4792308 72.0653422 14.4792308"></polygon>
                    <polygon id="Path" fill="#407BFF" opacity="0.4" points="82.3530243 16.0861247 73.1396615 16.0861247 72.8044739 14.4792308 82.0178366 14.4792308"></polygon>
                    <polygon id="Path" fill="#407BFF" opacity="0.4" points="86.3666814 18.6382503 66.951582 18.6382503 66.6163944 17.0399494 86.0314937 17.0399494"></polygon>
                    <polygon id="Path" fill="#407BFF" opacity="0.4" points="83.9000442 21.1989688 67.4844444 21.1989688 67.1492568 19.592075 83.5648565 19.592075"></polygon>
                    <polygon id="Path" fill="#407BFF" opacity="0.4" points="94.7893451 48.3614903 84.3383664 48.3614903 84.6735541 49.9683842 95.1245327 49.9683842"></polygon>
                    <polygon id="Path" fill="#407BFF" points="81.76 44.8555401 66.4530979 44.8555401 66.1179102 43.2486462 81.4248124 43.2486462"></polygon>
                    <polygon id="Path" fill="#407BFF" opacity="0.4" points="87.9137013 50.9222089 73.6811185 50.9222089 74.0163061 52.5205097 88.2488889 52.5205097"></polygon>
                    <polygon id="Path" fill="#407BFF" opacity="0.4" points="83.5992347 48.3614903 73.1482561 48.3614903 73.4834437 49.9683842 83.9344224 49.9683842"></polygon>
                    <polygon id="Path" fill="#407BFF" opacity="0.4" points="93.517351 45.8093648 72.6153937 45.8093648 72.9505813 47.4076656 93.8439441 47.4076656"></polygon>
                    <polygon id="Path" fill="#407BFF" points="74.2999264 1.60689387 57.4374099 1.60689387 57.1022222 0 73.9647388 0"></polygon>
                    <polygon id="Path" fill="#407BFF" opacity="0.4" points="82.6194555 7.66496968 64.0294334 7.66496968 64.364621 9.27186355 82.9546431 9.27186355"></polygon>
                    <polygon id="Path" fill="#407BFF" opacity="0.4" points="78.9066078 5.11284413 63.496571 5.11284413 63.8317586 6.71973799 79.2332009 6.71973799"></polygon>
                    <polygon id="Path" fill="#407BFF" opacity="0.4" points="79.9293598 2.56071857 62.9637086 2.56071857 63.2988962 4.15901942 80.2645475 4.15901942"></polygon>
                    <polygon id="Path" fill="#407BFF" points="74.1022517 25.3579883 62.3878734 25.3579883 62.0526858 23.7510944 73.767064 23.7510944"></polygon>
                    <polygon id="Path" fill="#407BFF" opacity="0.4" points="92.5117881 31.4246571 69.615894 31.4246571 69.9510817 33.0229579 92.8469757 33.0229579"></polygon>
                    <polygon id="Path" fill="#407BFF" opacity="0.4" points="78.5714202 28.8639385 69.0830316 28.8639385 69.4182193 30.4708324 78.9066078 30.4708324"></polygon>
                    <polygon id="Path" fill="#407BFF" opacity="0.4" points="88.8676968 28.8639385 79.3793083 28.8639385 79.714496 30.4708324 89.2028845 30.4708324"></polygon>
                    <polygon id="Path" fill="#407BFF" opacity="0.4" points="89.443532 26.311813 68.5501692 26.311813 68.8853569 27.9101138 89.7787196 27.9101138"></polygon>
                    <polygon id="Path" fill="#407BFF" opacity="0.4" points="89.4091538 39.0896268 71.2144812 39.0896268 71.5496689 40.6965206 89.7443414 40.6965206"></polygon>
                    <polygon id="Path" fill="#407BFF" opacity="0.4" points="75.9758646 36.5375012 70.6816188 36.5375012 71.0168065 38.1358021 76.3024577 38.1358021"></polygon>
                    <polygon id="Path" fill="#407BFF" opacity="0.4" points="84.2524209 36.5375012 76.6978072 36.5375012 77.0329948 38.1358021 84.5876085 38.1358021"></polygon>
                    <polygon id="Path" fill="#407BFF" opacity="0.4" points="91.0507138 33.9767826 70.1487564 33.9767826 70.4839441 35.5836765 91.3773068 35.5836765"></polygon>
                    <polygon id="Path" fill="#407BFF" opacity="0.4" points="107.509286 33.5471319 100.023429 33.5471319 99.6882414 31.948831 107.174099 31.948831"></polygon>
                    <polygon id="Path" fill="#407BFF" opacity="0.4" points="119.971391 33.5471319 108.437498 33.5471319 108.102311 31.948831 119.636203 31.948831"></polygon>
                    <polygon id="Path" fill="#407BFF" opacity="0.4" points="124.870287 36.1078504 100.556291 36.1078504 100.221104 34.5009566 124.535099 34.5009566"></polygon>
                    <polygon id="Path" fill="#407BFF" opacity="0.4" points="121.638734 38.659976 101.089154 38.659976 100.753966 37.0616752 121.303547 37.0616752"></polygon>
                    <polygon id="Path" fill="#407BFF" opacity="0.4" points="130.843503 23.3815947 107.560854 23.3815947 107.896041 24.9798956 131.17869 24.9798956"></polygon>
                    <polygon id="Path" fill="#407BFF" opacity="0.4" points="126.314172 20.8208762 107.027991 20.8208762 107.363179 22.42777 126.64936 22.42777"></polygon>
                    <polygon id="Path" fill="#407BFF" points="122.833377 18.2687506 101.587638 18.2687506 101.922826 19.8670515 123.168565 19.8670515"></polygon>
                    <polygon id="Path" fill="#407BFF" opacity="0.4" points="131.892038 48.8856643 103.220603 48.8856643 103.555791 50.4925581 132.227226 50.4925581"></polygon>
                    <polygon id="Path" fill="#407BFF" opacity="0.4" points="114.565416 46.3335387 102.687741 46.3335387 103.022929 47.9318396 114.900603 47.9318396"></polygon>
                    <polygon id="Path" fill="#407BFF" opacity="0.4" points="127.457248 46.3335387 115.579573 46.3335387 115.914761 47.9318396 127.792436 47.9318396"></polygon>
                    <polygon id="Path" fill="#407BFF" opacity="0.4" points="128.316703 43.7728201 102.154879 43.7728201 102.490066 45.379714 128.651891 45.379714"></polygon>
                    <polygon id="Path" fill="#407BFF" opacity="0.4" points="127.594761 56.559227 104.819191 56.559227 105.154378 58.1575278 127.929948 58.1575278"></polygon>
                    <polygon id="Path" fill="#407BFF" opacity="0.4" points="110.91273 53.9985084 104.286328 53.9985084 104.621516 55.6054023 111.247918 55.6054023"></polygon>
                    <polygon id="Path" fill="#407BFF" opacity="0.4" points="121.277763 53.9985084 111.823753 53.9985084 112.15894 55.6054023 121.612951 55.6054023"></polygon>
                    <polygon id="Path" fill="#407BFF" opacity="0.4" points="129.915291 51.4463828 103.753466 51.4463828 104.088653 53.0446837 130.250478 53.0446837"></polygon>
                    <polygon id="Path" fill="#407BFF" opacity="0.4" points="60.2392347 58.5442135 42.414128 58.5442135 42.7493157 60.1425143 60.5744224 60.1425143"></polygon>
                    <polygon id="Path" fill="#407BFF" opacity="0.4" points="54.9621781 55.9834949 41.8812656 55.9834949 42.2164533 57.5903888 55.2973657 57.5903888"></polygon>
                    <polygon id="Path" fill="#407BFF" opacity="0.4" points="68.9713024 55.9834949 55.89039 55.9834949 56.2255776 57.5903888 69.3064901 57.5903888"></polygon>
                    <polygon id="Path" fill="#407BFF" opacity="0.4" points="67.5102281 53.4227764 41.3484032 53.4227764 41.6835909 55.0296702 67.8454157 55.0296702"></polygon>
                    <polygon id="Path" fill="#407BFF" points="267.668815 106.55339 256.633407 106.55339 257.92259 123.241026 266.379632 123.241026"></polygon>
                    <polygon id="Path" fill="#FFFFFF" opacity="0.4" points="267.668815 106.55339 256.633407 106.55339 257.92259 123.241026 266.379632 123.241026"></polygon>
                    <polygon id="Path" fill="#263238" points="27.1759823 94.9614125 43.0415305 94.9614125 37.626961 123.241026 21.7614128 123.241026"></polygon>
                    <polygon id="Path" fill="#407BFF" points="47.3817807 87.37378 24.9757763 87.37378 31.2498013 123.241026 53.6558057 123.241026"></polygon>
                    <polygon id="Path" fill="#407BFF" points="23.6522149 87.37378 24.9757763 87.37378 31.2498013 123.241026 29.9262399 123.241026"></polygon>
                    <polygon id="Path" fill="#000000" opacity="0.3" points="23.6522149 87.37378 24.9757763 87.37378 31.2498013 123.241026 29.9262399 123.241026"></polygon>
                    <polygon id="Path" fill="#FFFFFF" points="34.4727594 119.408541 29.5394849 91.2062648 44.1588227 91.2062648 49.0920971 119.408541"></polygon>
                    <polygon id="Path" fill="#407BFF" opacity="0.6" points="48.3959382 119.408541 43.4712583 91.2062648 44.1588227 91.2062648 49.0920971 119.408541"></polygon>
                </g>
                <g id="Character" transform="translate(120.000000, 15.000000)">
                    <path d="M58.5146627,26.2896872 C58.831868,26.9777566 58.7204175,27.7002294 58.2746155,27.9152511 C57.8288135,28.1302728 57.2029761,27.7346329 56.8857709,27.0551644 C56.5685656,26.3756959 56.671443,25.6446222 57.1258181,25.4296005 C57.5801932,25.2145789 58.1974575,25.6016179 58.5146627,26.2896872 Z" id="Path" fill="#263238"></path>
                    <path d="M58.8061486,27.6744268 C58.8061486,27.6744268 59.0719152,32.3791011 58.240323,35.0969751 C59.954946,35.6646323 61.8067388,34.1852832 61.8067388,34.1852832 L58.8061486,27.6744268 Z" id="Path" fill="#FF5652"></path>
                    <path d="M58.6003939,20.6389176 C58.524015,20.6917628 58.435526,20.7243139 58.3432004,20.7335271 C57.2114041,20.7635371 56.1625432,21.3360413 55.5226456,22.2730823 C55.4459351,22.4171556 55.2970373,22.5078163 55.1342344,22.5096039 C54.9714315,22.5113393 54.8206194,22.4239213 54.7408294,22.2815413 C54.6610395,22.1391614 54.6649634,21.9644668 54.7510653,21.8258372 C55.544106,20.6320245 56.8625477,19.8954066 58.2917617,19.8476378 C58.5349853,19.8328442 58.7449858,20.0167107 58.7632831,20.2604794 C58.7721865,20.4054567 58.7116881,20.5460118 58.6003939,20.6389176 L58.6003939,20.6389176 Z" id="Path" fill="#263238"></path>
                    <path d="M83.7624861,25.2489823 C86.4115786,34.4519101 89.3693033,41.5906297 92.978593,45.6674407 C92.978593,45.6674407 93.0471696,52.9093708 80.7533228,56.3497176 C67.2420937,60.1340991 72.4288282,51.4214208 72.4288282,51.4214208 C79.2873201,47.5940349 78.6357634,41.8142523 73.4747482,39.6124303 L83.7624861,25.2489823 Z" id="Path" fill="#FF8B7B"></path>
                    <path d="M95.842005,43.9128638 C95.6019578,40.5413239 95.2847525,36.7053372 93.2186319,36.6107277 C90.9381833,36.4989164 77.7355863,42.416313 74.9150315,46.5877335 C72.0944767,50.759154 77.6069896,54.8445658 77.6069896,54.8445658 L95.842005,43.9128638 Z" id="Path" fill="#263238"></path>
                    <path d="M68.8195468,95.9911138 L57.417304,95.6126757 L57.6144857,105.194042 C57.6144857,105.194042 67.5678721,104.170538 68.0051009,101.547274 L68.8195468,95.9911138 Z" id="Path" fill="#FF8B7B"></path>
                    <polygon id="Path" fill="#FF8B7B" points="51.3904042 100.31735 50.1901681 105.211243 57.6144857 105.194042 57.417304 95.6126757"></polygon>
                    <path d="M114.582834,56.1346959 L114.342787,58.5945439 C114.265629,59.3858236 114.162752,60.1685025 114.059874,60.9425806 C113.854119,62.5079384 113.614072,64.0560945 113.348306,65.6042505 C112.833919,68.7091635 112.156643,71.7968748 111.393635,74.9017878 C110.603714,78.0806355 109.647924,81.2156689 108.530215,84.2939346 C107.93867,85.8678933 107.321406,87.4332511 106.584118,89.0416132 C105.83731,90.717919 104.978026,92.3414752 104.012184,93.9011031 C103.780709,94.3053439 103.489224,94.7611898 103.206311,95.139628 C102.923398,95.5180661 102.649058,95.9997147 102.348999,96.3867537 C102.04894,96.7737927 101.731735,97.2468404 101.337372,97.659682 L100.780119,98.2961462 C100.580438,98.5279714 100.368672,98.749036 100.145709,98.9584129 C98.425699,100.646937 96.4121248,102.005325 94.2045401,102.966417 C90.8160366,104.424637 87.2199385,105.338907 83.5481582,105.67569 C81.8335353,105.87351 80.2217897,105.950918 78.5928978,105.985321 C76.964006,106.019725 75.3608335,105.985321 73.7662341,105.907914 C72.1716348,105.830506 70.5941816,105.67569 69.0253016,105.495072 C67.4564216,105.314454 65.9304071,105.056428 64.2586497,104.712393 L64.5415625,95.7330878 C70.0149882,94.7658576 75.4257422,93.4705404 80.7447497,91.8540968 C81.9289229,91.4720716 83.0909531,91.0241319 84.2254343,90.5123615 C85.1930291,90.1070537 86.117809,89.6057102 86.9859773,89.0158106 C87.4895483,88.7114482 87.9152385,88.293216 88.229079,87.7944875 L88.4862724,87.3988476 C88.5891498,87.2698346 88.6920272,87.0462121 88.8034777,86.8655939 C88.9257262,86.6681809 89.0373369,86.4643345 89.1378292,86.2549323 C89.2492797,86.0313098 89.3693033,85.8334898 89.4807538,85.5754638 C90.489482,83.3730765 91.3180874,81.092069 91.958384,78.7549762 C92.6528063,76.2263213 93.3215092,73.594456 93.8530424,70.8593803 C94.3845755,68.1243046 94.8989624,65.380628 95.3704837,62.6025479 L96.0220404,58.4225265 L96.6050122,54.3543164 L114.582834,56.1346959 Z" id="Path" fill="#407BFF"></path>
                    <path d="M114.582834,56.1346959 L114.342787,58.5945439 C114.265629,59.3858236 114.162752,60.1685025 114.059874,60.9425806 C113.854119,62.5079384 113.614072,64.0560945 113.348306,65.6042505 C112.833919,68.7091635 112.156643,71.7968748 111.393635,74.9017878 C110.603714,78.0806355 109.647924,81.2156689 108.530215,84.2939346 C107.93867,85.8678933 107.321406,87.4332511 106.584118,89.0416132 C105.83731,90.717919 104.978026,92.3414752 104.012184,93.9011031 C103.780709,94.3053439 103.489224,94.7611898 103.206311,95.139628 C102.923398,95.5180661 102.649058,95.9997147 102.348999,96.3867537 C102.04894,96.7737927 101.731735,97.2468404 101.337372,97.659682 L100.780119,98.2961462 C100.580438,98.5279714 100.368672,98.749036 100.145709,98.9584129 C98.425699,100.646937 96.4121248,102.005325 94.2045401,102.966417 C90.8160366,104.424637 87.2199385,105.338907 83.5481582,105.67569 C81.8335353,105.87351 80.2217897,105.950918 78.5928978,105.985321 C76.964006,106.019725 75.3608335,105.985321 73.7662341,105.907914 C72.1716348,105.830506 70.5941816,105.67569 69.0253016,105.495072 C67.4564216,105.314454 65.9304071,105.056428 64.2586497,104.712393 L64.5415625,95.7330878 C70.0149882,94.7658576 75.4257422,93.4705404 80.7447497,91.8540968 C81.9289229,91.4720716 83.0909531,91.0241319 84.2254343,90.5123615 C85.1930291,90.1070537 86.117809,89.6057102 86.9859773,89.0158106 C87.4895483,88.7114482 87.9152385,88.293216 88.229079,87.7944875 L88.4862724,87.3988476 C88.5891498,87.2698346 88.6920272,87.0462121 88.8034777,86.8655939 C88.9257262,86.6681809 89.0373369,86.4643345 89.1378292,86.2549323 C89.2492797,86.0313098 89.3693033,85.8334898 89.4807538,85.5754638 C90.489482,83.3730765 91.3180874,81.092069 91.958384,78.7549762 C92.6528063,76.2263213 93.3215092,73.594456 93.8530424,70.8593803 C94.3845755,68.1243046 94.8989624,65.380628 95.3704837,62.6025479 L96.0220404,58.4225265 L96.6050122,54.3543164 L114.582834,56.1346959 Z" id="Path" fill="#000000" opacity="0.2"></path>
                    <path d="M63.9500176,67.5652482 C68.200859,85.9553393 70.5934173,104.72842 71.0914223,123.599897 L121.304156,123.599897 C121.578496,117.372869 120.532576,82.3157352 115.474438,56.9775809 C114.573235,52.3404037 111.844325,48.2645448 107.906241,45.6738355 C103.968158,43.0831262 99.154395,42.1969596 94.5560378,43.2161936 L94.3159906,43.2677988 C88.0576167,44.6955427 79.055846,47.009176 73.7405148,49.0217788 L73.5261869,49.1077875 C66.1656208,51.9732569 62.0670819,59.8729314 63.9500176,67.5652482 L63.9500176,67.5652482 Z" id="Path" fill="#407BFF"></path>
                    <path d="M67.2249475,83.6574705 C67.6193107,86.0657132 68.0222471,88.6287716 68.3908911,91.3122421 C72.4974131,87.0118086 73.8005266,73.8352803 73.8005266,73.8352803 L67.2249475,83.6574705 Z" id="Path" fill="#000000" opacity="0.2"></path>
                    <path d="M25.5253166,96.6103762 L14.1659393,95.5438687 L13.7887223,105.159638 C17.6012807,106.191598 21.6705334,105.034635 24.3765192,102.149335 L25.5253166,96.6103762 Z" id="Path" fill="#FF8B7B"></path>
                    <polygon id="Path" fill="#FF8B7B" points="8.71343823 98.3649531 5.06129128 104.944616 13.7887223 105.116634 14.1659393 95.5438687"></polygon>
                    <path d="M82.8108704,63.1874069 C82.0221438,64.7011595 81.3191484,66.025693 80.5304218,67.4018317 C79.7416952,68.7779705 78.9872611,70.1197057 78.1728152,71.4528401 C76.5610696,74.1363106 74.8893122,76.7767768 73.1232505,79.3742387 C69.5782445,84.7119676 65.6529418,89.7853885 61.3780831,94.554769 C59.0860166,97.1169036 56.5948475,99.4924694 53.9280462,101.659085 C53.5936948,101.942914 53.1993315,102.226742 52.8306875,102.519172 C52.4620436,102.811601 52.1362652,103.061027 51.5790128,103.379259 C51.0926175,103.707303 50.5889289,104.008772 50.0701445,104.28235 C49.5643308,104.566178 49.0670901,104.807003 48.5612763,105.030625 C46.6697784,105.853082 44.6908613,106.456181 42.6629733,106.828206 C39.1130333,107.432533 35.4941651,107.513664 31.9208603,107.069031 C30.2514808,106.875953 28.594251,106.588804 26.9570268,106.208944 C26.1425808,106.019725 25.336708,105.813304 24.5394083,105.563879 C23.7421087,105.314454 22.9876745,105.056428 22.0703513,104.703792 L23.4849152,95.8190965 C28.8688314,95.0880228 34.6899764,94.1505283 38.7021942,92.3787496 C39.5933299,92.0089042 40.4321137,91.5230904 41.1969706,90.933804 C41.4871552,90.7215272 41.7569504,90.4825327 42.0028434,90.219932 C42.0714283,90.1425242 42.3286218,89.9103008 42.5343765,89.7210817 C42.7401313,89.5318627 42.9630323,89.3512444 43.1773602,89.1276219 C45.0082014,87.2992973 46.7260227,85.3604925 48.3212291,83.3220366 C51.7614651,78.8455692 54.9747397,74.1980784 57.9488371,69.3972329 C59.4919978,66.9631875 60.9922929,64.4861378 62.492588,62.0090881 L64.7044517,58.2677109 L66.8391573,54.5951407 L82.8108704,63.1874069 Z" id="Path" fill="#407BFF"></path>
                    <polygon id="Path" fill="#FF8B7B" points="69.0167285 242.721906 59.6377408 242.721906 54.9139545 220.910107 64.3015153 220.910107"></polygon>
                    <path d="M59.1147808,240.700702 L69.6597121,240.700702 C70.0383748,240.715314 70.3625561,240.977597 70.4570118,241.345767 L72.3088046,249.714411 C72.3978174,250.127466 72.2939493,250.55869 72.0267533,250.885389 C71.7595572,251.212088 71.3582843,251.398498 70.9371062,251.39158 C67.2506668,251.322773 65.4674589,251.107751 60.8294037,251.107751 C57.9745565,251.107751 54.3138364,251.408781 50.3787767,251.408781 C46.4437169,251.408781 45.9207569,247.495387 47.5325025,247.108348 C54.7682115,245.525788 55.2483059,243.332567 57.5887663,241.242557 C58.0154654,240.882883 58.5575574,240.690398 59.1147808,240.700702 L59.1147808,240.700702 Z" id="Path" fill="#263238"></path>
                    <g id="Group" opacity="0.2" transform="translate(54.913954, 220.918708)" fill="#000000">
                        <polygon id="Path" points="9.38756082 1.42108547e-14 0 1.42108547e-14 2.61480005 12.0756173 11.8308986 11.2413332"></polygon>
                    </g>
                    <path d="M80.7533228,14.1882673 C84.1825687,22.9009456 86.5658947,27.8206416 84.3025924,34.1422789 C80.8733464,43.6548378 68.7080963,44.6095341 62.7926471,37.0923763 C57.4773158,30.3320948 52.8049682,17.2329742 59.5434365,10.0254477 C62.5323809,6.78041129 66.9840307,5.32107165 71.3062084,6.16937634 C75.628386,7.01768103 79.2036696,10.05245 80.7533228,14.1882673 L80.7533228,14.1882673 Z" id="Path" fill="#FF8B7B"></path>
                    <path d="M64.2757959,27.2271817 L61.7895926,30.5557173 C61.7895926,30.5557173 58.9004529,23.3567916 60.0063847,20.0626595 C58.6003939,17.2587768 55.7198273,21.3785922 54.6910535,15.9342433 C53.6622797,10.4898945 58.2488962,4.64130488 60.0063847,3.43718349 C60.184706,4.07186041 60.262811,4.73064723 60.2378588,5.38958031 C64.9679531,1.54303044 70.975233,-0.36241077 77.0497371,0.0570427407 C76.5422613,0.814164634 76.2192311,1.68033103 76.1066945,2.58569765 C76.1066945,2.58569765 86.2829819,4.30587106 88.5977229,10.0856537 C87.7810366,9.6788383 86.9170973,9.37548068 86.0257885,9.18256268 C87.8926953,11.8685214 88.6317368,15.1833489 88.083336,18.411293 C87.3443494,23.1146178 86.9603258,27.867199 86.9345386,32.6285263 C87.0288429,35.0625716 80.3503864,39.7328424 76.2781568,34.7443395 C72.2059272,29.7558367 64.2757959,27.2271817 64.2757959,27.2271817 Z" id="Path" fill="#263238"></path>
                    <path d="M68.5194878,25.3521927 C69.0499223,27.3825081 68.8992815,29.5315536 68.0908321,31.4674092 C67.0020465,33.9960641 64.7644635,33.419806 63.6499585,31.1749797 C62.6554772,29.153776 62.0124936,25.3951971 63.7871284,23.5976159 C65.5617632,21.8000346 67.8507849,22.9181474 68.5194878,25.3521927 Z" id="Path" fill="#FF8B7B"></path>
                    <path d="M86.1458121,123.599897 C86.1458121,123.599897 42.5600959,139.451295 41.2741286,160.437411 C38.9079489,199.072505 54.6653341,229.67439 54.6653341,229.67439 L69.0938865,228.152037 C69.0938865,228.152037 66.521952,215.706582 64.6101474,180.701053 C62.2011021,136.716219 136.624313,181.733157 121.295583,123.6257 L86.1458121,123.599897 Z" id="Path" fill="#407BFF"></path>
                    <path d="M86.1458121,123.599897 C86.1458121,123.599897 42.5600959,139.451295 41.2741286,160.437411 C38.9079489,199.072505 54.6653341,229.67439 54.6653341,229.67439 L69.0938865,228.152037 C69.0938865,228.152037 66.521952,215.706582 64.6101474,180.701053 C62.2011021,136.716219 136.624313,181.733157 121.295583,123.6257 L86.1458121,123.599897 Z" id="Path" fill="#FFFFFF" opacity="0.5"></path>
                    <path d="M50.6702626,224.341853 C50.6016777,224.341853 52.9678574,230.7667 52.9678574,230.7667 L70.9713987,228.994922 L70.0712216,223.146332 L50.6702626,224.341853 Z" id="Path" fill="#407BFF"></path>
                    <polygon id="Path" fill="#FF8B7B" points="28.4744681 243.788413 19.0869073 243.788413 16.3435105 221.985215 25.7310713 221.985215"></polygon>
                    <path d="M19.0097492,240.700661 L29.2974871,240.700661 C29.6827968,240.696839 30.0169204,240.967166 30.0947868,241.345767 L31.9637259,249.70581 C32.0586355,250.115258 31.9605665,250.545748 31.697789,250.873185 C31.4350114,251.200621 31.0367268,251.388617 30.6177468,251.382979 C26.9141612,251.331374 21.5731106,251.116352 16.900763,251.124953 C11.4654081,251.124953 10.4280612,251.434584 4.04109061,251.443185 C0.183188901,251.443185 -0.888450463,247.538391 0.72329514,247.185756 C8.0618815,245.560192 10.4023419,245.388174 16.7464469,241.448977 C17.4172687,240.994124 18.2008079,240.735077 19.0097492,240.700661 L19.0097492,240.700661 Z" id="Path" fill="#263238"></path>
                    <polygon id="Path" fill="#000000" opacity="0.2" points="16.3520836 221.985215 17.8438056 233.863013 27.1456353 233.226548 25.7396444 221.985215"></polygon>
                    <path d="M71.0999954,123.599897 C71.0999954,123.599897 -0.314051764,129.955938 0.448955463,165.933365 C1.25482826,203.364338 15.1947131,228.607883 15.1947131,228.607883 L29.1345979,228.607883 C29.1345979,228.607883 26.4940785,209.195726 26.9655999,172.341011 C27.0856235,161.306098 49.3757222,157.624927 71.0485567,156.3692 C89.8065321,155.259689 107.364271,144.534407 114.651419,127.126253 L116.143141,123.574094 L71.0999954,123.599897 Z" id="Path" fill="#407BFF"></path>
                    <path d="M71.0999954,123.599897 C71.0999954,123.599897 -0.314051764,129.955938 0.448955463,165.933365 C1.25482826,203.364338 15.1947131,228.607883 15.1947131,228.607883 L29.1345979,228.607883 C29.1345979,228.607883 26.4940785,209.195726 26.9655999,172.341011 C27.0856235,161.306098 49.3757222,157.624927 71.0485567,156.3692 C89.8065321,155.259689 107.364271,144.534407 114.651419,127.126253 L116.143141,123.574094 L71.0999954,123.599897 Z" id="Path" fill="#FFFFFF" opacity="0.5"></path>
                    <path d="M11.9283563,224.849304 C11.8683445,224.849304 14.3202554,231.317156 14.3202554,231.317156 L31.1492799,230.113035 L30.1719448,224.255844 L11.9283563,224.849304 Z" id="Path" fill="#407BFF"></path>
                    <path d="M89.8408246,83.1500193 L80.7876152,118.189952 C78.4711295,127.161923 77.3015162,136.39305 77.3069119,145.661121 L77.3069119,161.925361 C77.3069119,166.036575 80.324667,169.373711 84.053972,169.373711 L130.503109,169.373711 C134.232414,169.373711 137.25015,166.036575 137.25015,161.925361 L137.25015,145.661121 C137.247628,136.392688 138.420122,127.161567 140.739408,118.189952 L148.738124,87.2268303 C149.964079,82.4791517 146.732015,77.7658765 142.248276,77.7658765 L96.3306726,77.7658765 C93.1944701,77.8600258 90.5218502,80.0772992 89.8408246,83.1500193 Z" id="Path" fill="#263238"></path>
                    <path d="M32.0751763,152.464407 L33.5926177,161.151283 C34.3899174,165.718343 38.4021351,169.425317 42.5429496,169.425317 L94.1788207,169.425317 C98.3196352,169.425317 101.037313,165.718343 100.23144,161.151283 L98.7139985,152.464407 C97.7966752,147.260882 93.2443512,143.003453 88.529138,143.003453 L38.9593876,143.003453 C34.2441744,143.003453 31.1664262,147.226479 32.0751763,152.464407 Z" id="Path" fill="#263238"></path>
                    <polygon id="Path" fill="#407BFF" points="99.1512274 178.112192 72.1030498 178.112192 69.4625305 169.390913 101.791747 169.390913"></polygon>
                    <rect id="Rectangle" fill="#407BFF" x="80.7961884" y="178.112192" width="9.6619005" height="64.8591384"></rect>
                    <polygon id="Path" fill="#FFFFFF" opacity="0.7" points="90.4580889 242.979932 80.7961884 242.979932 80.7961884 179.668949 90.4580889 180.658049"></polygon>
                    <polygon id="Path" fill="#FFFFFF" opacity="0.7" points="88.1004823 242.979932 85.7943143 242.979932 85.7943143 180.185001 88.1004823 180.417225"></polygon>
                    <path d="M107.844366,253 L63.4013382,253 C62.8731017,252.993856 62.4072644,252.651255 62.2425377,252.147698 C62.077811,251.644141 62.2507053,251.091239 62.6726234,250.772317 L69.728297,245.611797 C73.1169118,243.12499 77.2064186,241.784411 81.4048795,241.784411 L89.8493977,241.784411 C94.0450231,241.785748 98.1314319,243.126188 101.517407,245.611797 L108.573081,250.772317 C109.006411,251.085662 109.187634,251.644422 109.021071,252.153593 C108.854508,252.662764 108.378502,253.005133 107.844366,253 Z" id="Path" fill="#407BFF"></path>
                </g>
            </g>
        </g>
    </g>
</svg>