<?xml version="1.0" encoding="UTF-8"?><svg id="Layer_2" xmlns="http://www.w3.org/2000/svg" viewBox="0 0 1260 578"><defs><style>.cls-1{fill:#7ce7d8;}.cls-2{fill:#987cd7;}.cls-3{fill:#a158d7;}.cls-4{fill:#9e64d7;}.cls-5{fill:#8bacd8;}.cls-6{fill:#9194d8;}.cls-7{fill:#b605d7;}.cls-8{fill:#8ea0d8;}.cls-9{fill:#b311d7;}.cls-10{fill:#aa35d7;}.cls-11{fill:#b01dd7;}.cls-12{fill:#a741d7;}.cls-13{fill:#ad29d7;}.cls-14{fill:#a44cd7;}.cls-15{fill:#9488d8;}.cls-16{fill:#88b8d8;}.cls-17{fill:#85c3d8;}.cls-18{fill:#9b70d7;}.cls-19{fill:#7fdbd8;}.cls-20{fill:#76ffd8;}.cls-21{fill:#82cfd8;}.cls-22{fill:#79f3d8;}</style></defs><g id="Layer_1-2"><path class="cls-20" d="m1260,2C840.02,3.34,419.98,2.72,0,2V0h1260v2Z"/><path class="cls-22" d="m1260,29.43c-60.63.31-120.72-7.92-181.26-9.44-54.53-1.37-106.04,6.65-159.71,14.96-49.19,7.62-98.21,8.27-147.62,2.28-47.28-5.73-93.61-14.2-141.41-14.15-47.51.04-94.18,6.27-141.41,10.51-50.71,4.55-101.23,3.6-151.89-1.15-50.6-4.74-100.38-8.74-151.27-8.07-61.84.82-123.57,5.22-185.43,5.05v-2.62c112.87.45,223.81-6.57,336.56,2.61,98.85,8.05,194.91-7.88,293.44-8.03,47.68-.07,94.12,7.19,141.41,12.16,49.23,5.17,98.48,4.68,147.54-1.95,53.58-7.23,105.34-13.96,159.57-12.88,60.59,1.21,120.82,8.54,181.48,8.08v2.62Z"/><path class="cls-1" d="m1260,56.86c-60.62-1.93-118.46-20.36-178.59-25.85-58.72-5.36-108.05,19.47-161.42,39.98-52.1,20.02-95.3,22.97-148.58,6.33-46.26-14.44-92.01-37.65-141.41-38.07-48.27-.4-94.95,17.41-141.41,28.16-51.99,12.03-98.38,9.84-150.08-2.71-49.87-12.11-96.68-24.1-148.51-21.68-63.49,2.97-126.4,12.75-190.01,13.82v-3.24c63.39-.92,126.18-10.06,189.46-12.77,51.65-2.21,98.86,8.82,148.84,20.04,51.53,11.57,98.52,13.63,150.29,2.52,46.61-10,93.23-26.39,141.41-26.04,49.19.36,94.95,21.75,141.41,35.2,52.78,15.28,96.71,12.64,148.46-5.85,53.56-19.13,103.01-41.83,161.22-36.99,60.17,5.01,118.33,22.22,178.91,23.88v3.24Z"/><path class="cls-19" d="m1260,84.29c-61.23-3.12-116.31-30.55-176.46-38.96-62.64-8.76-111.29,30.88-162.83,60.22-22.66,12.9-47.56,26.57-74.05,28.97-25.93,2.35-52.3-8.51-75.26-19.42-44.56-21.17-90.14-56.67-141.41-57.35-49.24-.65-96.13,26.48-141.41,42.41-52.84,18.6-96.59,15.46-148.68-4.06-49.15-18.42-92.62-36.42-146.24-32.65-64.87,4.56-128.53,19.1-193.67,20.84v-3.86c64.98-1.75,128.59-15.73,193.32-20.17,53.36-3.66,97.26,13.84,146.47,31.58,52.19,18.81,95.93,21.84,148.8,3.91,45.36-15.38,92.35-41.67,141.41-41.01,50.96.68,96.73,34.97,141.41,55.46,23.2,10.64,49.28,20.91,75.26,18.86,26.25-2.07,51.4-15.68,73.99-28.11,51.7-28.44,100.56-66.7,162.69-58.23,60.11,8.2,115.55,34.55,176.66,37.71v3.86Z"/><path class="cls-21" d="m1260,111.71c-61.13-3.15-116.51-29.66-176.63-37.89-62.2-8.52-111.03,29.95-162.71,58.52-22.57,12.48-47.73,26.15-74,28.24-25.99,2.06-52.07-8.25-75.26-18.95-44.77-20.64-90.31-54.84-141.41-55.78-49.57-.91-96.2,27-141.53,43.41-52.54,19.02-97.08,15.99-148.77-4.29-49.29-19.34-92.25-37.26-146.34-33.53-64.75,4.46-128.37,18.51-193.37,20.27v-4.48c65.18-1.72,128.85-16.43,193.76-21.01,54.14-3.83,96.92,14.31,146.12,33.92,51.61,20.56,96.16,23.6,148.64,4.32,45.3-16.64,91.81-44.89,141.47-44.01,51.45.91,96.76,36.46,141.41,57.87,22.95,11,49.29,21.91,75.26,19.55,26.54-2.4,51.43-16.18,74.07-29.18,51.5-29.58,100.07-69.57,162.87-60.73,60.16,8.46,115.14,36.19,176.4,39.29v4.48Z"/><path class="cls-17" d="m1260,139.14c-60.58-1.65-118.75-18.83-178.92-23.82-58.19-4.83-107.65,17.8-161.21,36.9-51.74,18.44-95.69,21.07-148.46,5.83-46.35-13.38-92.31-35.04-141.41-35.11-49.58-.07-95.65,23.14-142.04,37.62-52.57,16.41-98.34,13.59-150.21-4.14-50.1-17.12-94.56-32.32-148.31-30.02-63.28,2.7-126.06,11.83-189.45,12.74v-5.1c63.73-1.15,126.71-11.28,190.3-14.39,53.8-2.63,97.96,13.17,147.89,30.77,51.86,18.28,97.3,21.13,149.89,4.16,46.14-14.89,92.38-39.18,141.92-38.87,49.46.31,95.33,24.66,141.41,39.61,53.55,17.38,96.36,14.25,148.64-6.59,53.26-21.24,102.54-47.22,161.53-41.59,60.12,5.74,117.78,24.82,178.42,26.9v5.1Z"/><path class="cls-16" d="m1260,166.57c-60.67.49-120.93-6.59-181.54-7.72-54.15-1.01-105.98,5.38-159.53,12.33-49.03,6.36-98.33,6.82-147.52,1.86-47.14-4.75-93.86-12.67-141.41-11.57-49.62,1.15-95.1,18.96-142.62,31.06-52.55,13.39-99.93,10.89-151.91-4-50.97-14.6-97.04-26.62-150.51-26.09-61.68.61-123.26,4.4-184.95,4.13v-5.71c62,.09,123.82-4.76,185.79-5.74,53.52-.85,99.28,11.75,150.09,26.83,51.97,15.42,99.04,17.96,151.6,4.03,47.37-12.55,92.85-31.34,142.51-32.3,47.79-.92,94.32,9.56,141.41,15.99,49.62,6.77,98.34,5.96,147.69-2.6,53.75-9.33,105.01-18.59,159.85-16.94,60.5,1.82,120.44,10.89,181.05,10.73v5.71Z"/><path class="cls-5" d="m1260,194c-209.88-.26-420.16-3.55-630.01.05-49.17.84-95.39,16.96-142.89,27.69-52.74,11.92-100.32,9.7-152.58-3.79-51.35-13.24-98.41-23.98-151.75-24.03-60.92-.05-121.84.2-182.77.07v-6.33c60.98.23,121.95-.32,182.93-.26,53.31.05,100.31,10.83,151.6,24.13,52.18,13.54,99.91,15.89,152.58,3.85,47.62-10.88,93.58-26.82,142.89-27.97,96.13-2.23,192.41,1.9,288.57.66,113.82-1.46,227.61.37,341.43-.42v6.33Z"/><path class="cls-8" d="m1260,221.43c-61.13-.2-122.11,4.27-183.22,5.07-53.69.71-105.69-4.74-158.94-10.69-97.63-10.9-192.77,6.95-290.2,8.48-48.83.77-94.71,16.7-141.89,27.32-53.94,12.14-100.86,9.95-153.37-7.7-52.11-17.51-98.13-32.67-153.8-31.36-59.64,1.4-118.85,9.21-178.57,8.88v-6.95c60.14.64,120.04-4.89,180.15-5.57,54.93-.62,101.12,12.63,153.09,28.73,52.36,16.22,99.64,18.1,153.05,6.06,47.25-10.65,93.34-26.85,142.26-27.43,96.72-1.16,192.77-12.56,289.57-5.4,114.42,8.47,227.33,2.91,341.88,3.61v6.95Z"/><path class="cls-6" d="m1260,248.86c-61.64,1.06-122.48,11.18-183.98,14.2-56.43,2.77-106.05-14.08-159.55-29.37-51.4-14.69-96.58-16.16-148.67-4.6-48.24,10.71-94.92,25.79-144.65,27.84-48.4,2-93.21,16.35-140.13,26.84-56.8,12.7-101.68,8.18-154.96-15.91-51.64-23.35-98.69-49.12-157.09-43.86-57.61,5.19-112.87,23.08-170.96,24.85v-7.57c58.48-1.15,114.98-16.21,173.13-20.31,57.74-4.07,104.22,18.49,156.16,40.31,53.08,22.3,98.55,26.1,154.51,13.57,47-10.53,92.09-25.34,140.63-26.97,49.16-1.66,95.93-13.95,144.06-22.8,51.13-9.4,97.71-8.24,148.37,3.75,53.53,12.67,103.83,26.21,159.38,24.06,61.38-2.38,122.29-10.92,183.77-11.6v7.57Z"/><path class="cls-15" d="m1260,276.29c-62.23,1.76-122.68,16.96-184.6,21.64-59.59,4.5-106.92-21.78-160.03-44.7-22.9-9.88-47.33-19.77-72.54-21.33-26.08-1.61-52.47,6.09-76.95,14.32-48.32,16.25-94.67,39.51-146.34,42.37-47.95,2.66-92.1,16.05-138.68,26.4-23.83,5.3-49.77,10.62-74.32,8.39-29.24-2.66-56.56-16.95-81.9-30.74-50.48-27.47-99.63-62.81-159.87-54.22-56.39,8.04-107.23,34.94-164.77,37.86v-8.19c57.54-2.87,109.58-27.41,166.18-34.89,59.74-7.9,108.47,25.28,159.2,51.78,25.35,13.24,52.56,26.81,81.51,29.39,24.62,2.19,50.53-3.1,74.43-8.42,46.68-10.39,90.96-23.89,139.02-26.52,51.12-2.79,97.66-24.06,145.95-39.02,53.96-16.72,96.71-14.39,149.32,6.46,53.19,21.08,101.22,45.29,159.92,41.15,61.81-4.35,122.39-18.21,184.46-19.94v8.19Z"/><path class="cls-2" d="m1260,303.71c-62.19,1.77-122.68,16.66-184.57,21.28-59.38,4.43-106.89-21.43-160.01-43.94-52.54-22.27-95.56-25.48-149.5-6.5-48.59,17.1-94.29,40.98-146.54,44.15-47.03,2.86-92.14,13.6-138.37,21.93-23.63,4.26-50.07,9.9-74.17,7.49-29.03-2.9-56.92-16.42-82.79-28.91-51.21-24.73-102.99-58.3-162.1-50.1-55.17,7.65-105.89,31.13-161.96,34.6v-8.81c57.27-3.06,107.3-30.64,163.34-38.89,60.2-8.87,110.4,27.45,160.9,54.76,25.38,13.72,52.95,28.4,82.22,31.17,24.3,2.3,50.57-3.42,74.21-8.41,46.33-9.76,90.88-22.61,138.41-25.28,52.37-2.94,98.06-27.44,146.62-44.8,54.1-19.34,97.22-16.35,149.55,7.34,53.17,24.07,99.81,51.3,160.08,46.66,61.99-4.78,122.33-20.93,184.68-22.55v8.81Z"/><path class="cls-18" d="m1260,331.14c-61.6.96-122.46,10.67-183.92,13.52-56.19,2.61-105.98-13.37-159.5-27.98-52.05-14.21-97.4-16.62-149.09,0-48.2,15.5-94.6,38.31-146.03,40.04-99.14,3.34-201.64,9.9-299.08-10.56-56.12-11.78-111.05-25.57-168.8-23.46-51.26,1.87-102.24,7.5-153.56,8.43v-9.43c52.93-2.2,104.26-14.64,156.92-18.9,57.89-4.69,111.79,17.06,166.15,34.01,27.58,8.6,56.16,17.56,85.17,19.61,24.34,1.73,49.89-1.54,74.15-3.47,46.1-3.68,92.01-7.74,138.21-9.94,51.77-2.47,97.84-25.55,146.23-41.69,52.64-17.55,96.86-14.71,149.26,2.68,53.4,17.72,102.39,37.68,159.71,34.33,61.62-3.6,122.38-15.24,184.18-16.62v9.43Z"/><path class="cls-4" d="m1260,358.57c-61.11-.26-122.09,3.82-183.17,4.5-53.56.59-105.69-4.17-158.91-9.51-50.66-5.08-99.26-6.34-148.6,7.8-47.61,13.65-95.05,35.59-145.44,35.22-46.49-.34-92.29-13.17-137.82-21.14-55.85-9.78-109.45-5.49-165.77-2.09-57.74,3.48-118.83,12.99-176.5,7.24-48.51-4.84-94.86-19.5-143.79-22.03v-10.05c49.29,1.47,97.94,8.99,147.13,11.6,57.72,3.07,116.02,1.62,173.85,3.31,54.86,1.6,109.51-.34,164.15,5.65,45.72,5.01,91.8,13.46,137.92,13.22,50.75-.27,97.84-22.59,145.64-36.87,50.02-14.94,97.62-13.37,148.77-5.17,53.42,8.56,104.78,17.08,159.11,15.84,61.21-1.4,122.17-7.47,183.43-7.59v10.05Z"/><path class="cls-3" d="m1260,386c-113.79.11-227.59,0-341.39,0-50.36,0-99.37-2.1-148.43,11.01-47.68,12.74-95.1,32.93-145.18,32.93-48.02,0-92.23-20.16-137.66-32.94-57.35-16.13-110.12-8.94-167.81,2.78-57.77,11.74-121.13,32.03-180.59,23.41-48.69-7.06-88.59-35.28-138.95-37.18v-10.67c49.54,2.91,91.5,27.3,139.82,34.38,58.31,8.54,122.47-10.39,179.76-20.08,58.05-9.82,109.97-16.79,167.56-2,45.32,11.65,90.29,30.05,137.7,30.63,50.04.6,97.68-20.4,145.2-33.3,48.9-13.28,98.17-11.88,148.43-10.68,113.88,2.72,227.65.34,341.54,1.05v10.67Z"/><path class="cls-14" d="m1260,413.43c-66.93.37-133.6-6.3-200.48-7.52-47-.86-94.05-.49-141.06-1.1-48.89-.64-95.54-1.81-142.99,11.76-49.67,14.21-99.43,37.1-151.93,37.14-48.96.04-91.51-24.59-136.5-40.35-55.94-19.59-107.82-11.52-164.32,2.41-56.84,14.01-115.16,33.85-174.44,26.94-50.58-5.9-96.87-27.07-148.27-29.28v-11.29c50.46,2.47,93.54,27.1,142.82,33.9,59.44,8.2,120.43-11.89,177.84-24.68,56.99-12.69,110-20.43,166.59-2.76,45.38,14.16,88.56,36.22,137.15,36.09,51.2-.14,99.42-21.32,148.04-34.74,48.45-13.37,96.71-11.49,146.52-11.22,113.61.62,227.49,4.66,341.05,3.41v11.29Z"/><path class="cls-12" d="m1260,440.86c-78.25-1.9-155.43-16.64-233.46-21.55-36.73-2.31-73.62-2.1-110.4-4.08-45.51-2.45-87.24-.05-131.08,13.71-52.65,16.53-108.02,45.28-164.3,44.72-49.85-.5-91.24-33.5-134.52-53.86-54.11-25.46-101.31-17.14-156.64,1.03-54.53,17.91-105.59,37.36-163.91,34.53-55.52-2.7-109.98-14.05-165.7-14.5v-11.9c53.61,1.3,104.66,16.93,157.85,21.15,58.77,4.67,113.03-14.98,168.63-31.09,55.85-16.18,105.18-24.52,160.12-1.67,44.11,18.35,85.95,47.55,135.41,47.78,54.62.26,107.38-25.8,158.73-41.31,45.58-13.77,89.35-14.27,136.48-12.83,41.36,1.27,82.85.91,124.17,2.72,73.01,3.2,145.47,14.45,218.61,15.23v11.9Z"/><path class="cls-10" d="m1260,468.29c-87.72-3.49-173.52-25.26-260.81-33.18-28.42-2.58-56.43-1.83-84.57-6.38-41.42-6.7-82.31,2.12-121.54,15.23-55.07,18.4-115.25,52.08-174.61,51.07-50.73-.87-91.37-40.93-132.83-65.14-51.89-30.3-96.88-22.16-150.49.02-52.43,21.69-97.36,40.69-154.98,40.62-60.07-.08-120.08-2.9-180.16-2.24v-12.52c58.35-.43,116.34,5.93,174.64,6.92,57.81.98,105.24-18.26,158.47-38.38,54.33-20.53,99.96-28.93,152.74-.35,42.06,22.77,83.27,60.02,133.49,60.8,58.13.9,116.55-30.95,170.65-48.62,41.4-13.52,81.7-19.08,125.04-14.69,31.53,3.2,63.04,3,94.61,5.58,83.75,6.84,166.27,25.64,250.36,28.73v12.52Z"/><path class="cls-13" d="m1260,495.71c-87.57-3.49-173.23-25.11-260.38-32.99-28.55-2.58-56.71-1.89-85-6.35-41.41-6.53-82.23,2.36-121.64,14.87-54.89,17.42-115.44,49.71-174.18,48.68-49.99-.88-91.61-39.54-133.12-62.68-22.18-12.36-46.41-22.77-72.31-21.5-26.73,1.3-53.04,11.42-77.57,21.24-51.78,20.74-96.43,38.73-153.01,38.73H0v-13.14h182.8c29.3,0,56.07-1.56,84.05-11.58,23.59-8.45,46.02-19.76,68.96-29.77,52.9-23.07,98.61-31.11,149.78-.05,41.29,25.07,81.21,66.5,132.48,67.22,102.54,1.45,191.58-88.2,296.92-67.61,26.27,5.14,52.47,4.06,79.31,6.51,88.96,8.14,176.25,32.4,265.71,35.26v13.14Z"/><path class="cls-11" d="m1260,523.14c-77.97-1.84-154.89-16.38-232.64-21.2-36.98-2.29-74.13-2.07-111.16-4.01-44.6-2.33-87.14-.3-130.9,9.41-53,11.76-107.65,31.84-162.49,31.34-48.28-.44-91.53-24.89-136.06-40.33-51.97-18.02-98.36-13.73-150.94-.08-51.64,13.4-99.32,24.87-153.01,24.87H0v-13.76h182.8c55.16,0,101.31-15.34,153.01-32.82,53.6-18.12,97.85-23.86,150.31.27,42.94,19.75,85.3,52.32,134.4,53.05,56.98.85,115.09-26.2,169.16-41.2,41.7-11.57,82.35-16.72,125.47-12.67,32.11,3.01,64.23,2.86,96.36,5.42,83.12,6.64,165.06,24.96,248.51,27.95v13.76Z"/><path class="cls-9" d="m1260,550.57c-66.69.41-133.14-6.08-199.79-7.23-47.22-.81-94.48-.45-141.71-1.04-47.43-.6-94.91-1.66-142.2,2.59-49.64,4.46-98.79,10.88-148.71,10.94-47.24.06-92.8-8.29-139.51-14.03-50.65-6.23-101.58-4.61-152.28.35-111.82,10.94-223.53,8.42-335.81,8.42v-14.38h182.8c52.47,0,101.51-7.45,153.01-16.72,51.41-9.25,100.43-12.17,151.61-.16,45.85,10.77,90.08,27.16,137.76,27.32,52.52.17,104.1-12.99,155.67-21.25,45.5-7.28,90.6-7.3,136.53-5.99,42.06,1.2,84.23.81,126.25,2.52,72.25,2.94,143.99,13.66,216.37,14.28v14.38Z"/><path class="cls-7" d="m1260,578H0v-15c111.97,0,223.92,1.56,335.81-2.97,98.13-3.98,195.37,5.08,293.35,4.83,96.67-.26,193.09-5.05,289.82-4.61,113.61.52,227.45,4.02,341.02,2.76v15Z"/></g></svg>