<?xml version="1.0" encoding="UTF-8"?><svg id="Layer_2" xmlns="http://www.w3.org/2000/svg" xmlns:xlink="http://www.w3.org/1999/xlink" viewBox="0 0 1253 160"><defs><style>.cls-1,.cls-2{fill:none;}.cls-3{fill:url(#New_Pattern_3);stroke:url(#New_Pattern_3);stroke-miterlimit:10;}.cls-2{stroke:#76ffd8;}</style><pattern id="New_Pattern_3" x="0" y="0" width="250" height="161" patternTransform="translate(-91.5 -322.5)" patternUnits="userSpaceOnUse" viewBox="0 0 250 161"><rect class="cls-1" width="250" height="161"/><polyline class="cls-2" points="239.79 321.64 293.99 321.64 302.4 258.32 335.81 321.64 385.39 321.64 396.11 240.93 438.76 321.76 488.34 321.76 509.64 161.36 455.44 161.36 447 224.95 413.63 161.36 406.67 161.36 406.69 161.24 352.49 161.24 344.05 224.82 310.68 161.24 261.09 161.24"/><polyline class="cls-2" points="-10.21 321.64 43.99 321.64 52.4 258.32 85.81 321.64 135.39 321.64 146.11 240.93 188.76 321.76 238.34 321.76 259.64 161.36 205.44 161.36 197 224.95 163.63 161.36 156.67 161.36 156.69 161.24 102.49 161.24 94.05 224.82 60.68 161.24 11.09 161.24"/><polyline class="cls-2" points="-260.21 321.64 -206.01 321.64 -197.6 258.32 -164.19 321.64 -114.61 321.64 -103.89 240.93 -61.24 321.76 -11.66 321.76 9.64 161.36 -44.56 161.36 -53 224.95 -86.37 161.36 -93.33 161.36 -93.31 161.24 -147.51 161.24 -155.95 224.82 -189.32 161.24 -238.91 161.24"/><polyline class="cls-2" points="239.79 160.64 293.99 160.64 302.4 97.32 335.81 160.64 385.39 160.64 396.11 79.93 438.76 160.76 488.34 160.76 509.64 .36 455.44 .36 447 63.95 413.63 .36 406.67 .36 406.69 .24 352.49 .24 344.05 63.82 310.68 .24 261.09 .24"/><polyline class="cls-2" points="-10.21 160.64 43.99 160.64 52.4 97.32 85.81 160.64 135.39 160.64 146.11 79.93 188.76 160.76 238.34 160.76 259.64 .36 205.44 .36 197 63.95 163.63 .36 156.67 .36 156.69 .24 102.49 .24 94.05 63.82 60.68 .24 11.09 .24"/><polyline class="cls-2" points="-260.21 160.64 -206.01 160.64 -197.6 97.32 -164.19 160.64 -114.61 160.64 -103.89 79.93 -61.24 160.76 -11.66 160.76 9.64 .36 -44.56 .36 -53 63.95 -86.37 .36 -93.33 .36 -93.31 .24 -147.51 .24 -155.95 63.82 -189.32 .24 -238.91 .24"/><polyline class="cls-2" points="239.79 -.36 293.99 -.36 302.4 -63.68 335.81 -.36 385.39 -.36 396.11 -81.07 438.76 -.24 488.34 -.24 509.64 -160.64 455.44 -160.64 447 -97.05 413.63 -160.64 406.67 -160.64 406.69 -160.76 352.49 -160.76 344.05 -97.18 310.68 -160.76 261.09 -160.76"/><polyline class="cls-2" points="-10.21 -.36 43.99 -.36 52.4 -63.68 85.81 -.36 135.39 -.36 146.11 -81.07 188.76 -.24 238.34 -.24 259.64 -160.64 205.44 -160.64 197 -97.05 163.63 -160.64 156.67 -160.64 156.69 -160.76 102.49 -160.76 94.05 -97.18 60.68 -160.76 11.09 -160.76"/><polyline class="cls-2" points="-260.21 -.36 -206.01 -.36 -197.6 -63.68 -164.19 -.36 -114.61 -.36 -103.89 -81.07 -61.24 -.24 -11.66 -.24 9.64 -160.64 -44.56 -160.64 -53 -97.05 -86.37 -160.64 -93.33 -160.64 -93.31 -160.76 -147.51 -160.76 -155.95 -97.18 -189.32 -160.76 -238.91 -160.76"/></pattern></defs><g id="Layer_1-2"><rect class="cls-3" x=".5" y=".5" width="1252" height="159"/></g></svg>